# xmcd
#
# Track frame offsets:
# 150
# 26817
# 46997
# 70082
# 94345
# 116100
# 141475
# 164917
# 186752
# 213847
# 229187
# 247892
# 266712
#
# Disc length: 3965 seconds
#
#
# Revision: 0
# Processed by: cddbd v1.4PL0 Copyright (c) Steve Scherf et al.
# Submitted via: FreeRIP 2.00 
#
DISCID=c50f7b0d
DTITLE=Southern Gentlemen - Exotic Dancer Blues
DYEAR=1993
DGENRE=Blues
TTITLE0=Drive Me Wild
TTITLE1=Exotic Dancer Blues
TTITLE2=I Feel So Blue
TTITLE3=Don´t Be Shy
TTITLE4=Too Hot For Love
TTITLE5=Madness In The Dark
TTITLE6=What To Do
TTITLE7=Down To New Orleans
TTITLE8=Back Door Woman
TTITLE9=Give your Lust (Bonus Track)
TTITLE10=Ease The Pain
TTITLE11=Tonight
TTITLE12=Time Traveler
EXTD=Dreyfuss
EXTT0=
EXTT1=
EXTT2=
EXTT3=
EXTT4=
EXTT5=
EXTT6=
EXTT7=
EXTT8=
EXTT9=
EXTT10=
EXTT11=
EXTT12=
PLAYORDER=
